<?xml version="1.0" standalone="no"?><!DOCTYPE svg PUBLIC "-//W3C//DTD SVG 1.1//EN" "http://www.w3.org/Graphics/SVG/1.1/DTD/svg11.dtd"><svg class="icon" height="512" viewBox="0 0 1460 1024" version="1.1" xmlns="http://www.w3.org/2000/svg"><path d="M568.999325 934.4605L440.394328 302.973666a9.550304 9.550304 0 0 1 7.47603-11.192437l146.236327-28.73734a18.409183 18.409183 0 0 0 11.192437-7.476029 16.594193 16.594193 0 0 0 2.679271-13.309926l-1.59892-9.07495a26.317353 26.317353 0 0 1 21.347738-31.41661l125.96894-25.020932a25.150574 25.150574 0 0 1 20.267387 4.321405 27.786631 27.786631 0 0 1 11.75422 17.026333l2.117488 9.031736a18.020257 18.020257 0 0 0 20.82917 13.828494L955.030385 192.21607a9.550304 9.550304 0 0 1 11.192437 7.432816l128.604997 630.925051a9.550304 9.550304 0 0 1-7.47603 11.192437l-507.116813 100.126941a10.501013 10.501013 0 0 1-11.192437-7.476029z" fill="#F9CFCF" /><path d="M608.79946 905.93923l431.751519-86.773801a15.427414 15.427414 0 0 0 13.439568-18.063471L927.459824 172.683322a15.729912 15.729912 0 0 0-19.100607-12.402431L764.888589 189.623228a7.173531 7.173531 0 0 1-8.642809-5.66104c-2.074274-9.809588-8.253883-22.212019-17.026334-27.873059-12.402431-8.253883-22.212019-8.253883-37.164078-5.185685l-113.912221 22.687373c-33.058744 6.179608-38.201215 22.730587-35.133019 48.529372a10.068872 10.068872 0 0 1-8.642809 10.328157l-143.038487 28.910196A15.729912 15.729912 0 0 0 388.926401 280.502363l126.012154 628.02971a15.513842 15.513842 0 0 0 15.513842 12.964213 6.568535 6.568535 0 0 0 3.111411-0.518568l8.642809-1.555706m489.615125-110.541526l-490.695476 97.058744a10.1553 10.1553 0 0 1-10.846725-7.216745L405.823093 286.206617a9.247806 9.247806 0 0 1 7.216745-10.846725l141.525996-27.873059a17.804186 17.804186 0 0 0 10.846725-7.216745 16.118839 16.118839 0 0 0 2.592843-12.964214l-1.555706-8.642809a25.5395 25.5395 0 0 1 20.656313-30.465901l121.90682-24.286293a24.329507 24.329507 0 0 1 19.619176 4.321404 26.965564 26.965564 0 0 1 11.365294 16.507766l2.074274 8.642808a17.285618 17.285618 0 0 0 20.137745 13.439568l141.525996-27.873058a9.247806 9.247806 0 0 1 10.846725 7.216745l124.456449 611.997299a9.247806 9.247806 0 0 1-7.25996 10.673869z" fill="#A5A5A5" /><path d="M530.279541 922.490209a16.594193 16.594193 0 0 1-16.550979-13.742066L387.716408 280.718433a16.98312 16.98312 0 0 1 2.333558-12.964213 16.378123 16.378123 0 0 1 10.933154-7.216745l143.038487-28.910196a8.988521 8.988521 0 0 0 7.90817-9.161378c-3.111411-25.928427 1.81499-43.214045 35.997299-49.696151l113.609723-22.730587c15.16813-3.154625 25.237002-3.197839 37.985146 5.315327 9.204591 5.920324 15.427414 18.625253 17.285617 28.564484a6.914247 6.914247 0 0 0 2.765699 4.105334 5.747468 5.747468 0 0 0 4.710331 0.734639l143.643484-29.428765a17.026334 17.026334 0 0 1 12.964214 2.333559 16.378123 16.378123 0 0 1 7.216745 10.933153l126.530723 628.505064a16.550979 16.550979 0 0 1-3.024984 12.964214 16.205267 16.205267 0 0 1-11.365293 6.52532l-431.665091 86.773802-0.432141-2.117488 431.751519-86.773802a14.130993 14.130993 0 0 0 10.198515-6.222822 14.347063 14.347063 0 0 0 2.636057-11.149224L926.379473 172.683322a14.217421 14.217421 0 0 0-6.266036-9.50709 14.865631 14.865631 0 0 0-11.53815-2.03106L764.888589 190.660365a7.951384 7.951384 0 0 1-6.352465-1.080351 9.031735 9.031735 0 0 1-3.673194-5.401756c-1.944632-9.247806-7.951384-21.607022-16.594193-27.224848-12.143147-8.081026-21.607022-8.037812-36.386225-5.012829l-113.609723 22.730587c-32.669818 6.136394-37.29372 21.995949-34.268738 47.535449a11.062795 11.062795 0 0 1-9.507089 11.32208l-143.038488 28.910196a14.260635 14.260635 0 0 0-9.50709 6.266036 14.865631 14.865631 0 0 0-2.03106 11.53815l126.012154 628.072924a16.118839 16.118839 0 0 0 6.266037 9.679946 16.291695 16.291695 0 0 0 8.167454 2.376772 5.617826 5.617826 0 0 0 2.636057-0.388926h0.302498l8.642809-1.555706 0.388926 2.117488-8.642809 1.512492a7.778528 7.778528 0 0 1-3.413909 0.43214z m9.852802-15.427414a11.235652 11.235652 0 0 1-10.889939-8.12424L404.785955 286.379473a10.068872 10.068872 0 0 1 1.469278-7.605672 10.241729 10.241729 0 0 1 6.611749-4.321404l141.525996-27.873059a16.637407 16.637407 0 0 0 10.1553-6.784605 15.124916 15.124916 0 0 0 2.419987-12.056718l-1.555706-8.642809a25.928427 25.928427 0 0 1 3.84605-20.180959 26.70628 26.70628 0 0 1 17.717758-11.581364l121.733964-24.632005a25.193788 25.193788 0 0 1 20.483457 4.321404 28.089129 28.089129 0 0 1 11.797434 17.285618l2.074274 8.642809a16.334909 16.334909 0 0 0 18.927752 12.618501l141.482782-27.873059a10.025658 10.025658 0 0 1 7.605672 1.469278 10.241729 10.241729 0 0 1 4.321404 6.611749l124.456448 611.997299a10.068872 10.068872 0 0 1-1.469277 7.605672 10.241729 10.241729 0 0 1-6.611749 4.321404l-490.436192 97.274814z m174.109386-742.806212a22.255233 22.255233 0 0 0-5.01283 0.561783l-121.906819 24.286293a24.588791 24.588791 0 0 0-16.291695 10.630655 23.854153 23.854153 0 0 0-3.500338 18.538825l1.555706 8.642809a17.285618 17.285618 0 0 1-2.765699 13.742066 18.798109 18.798109 0 0 1-11.494936 7.648886l-141.56921 28.089129a8.081026 8.081026 0 0 0-5.228899 3.543552 7.90817 7.90817 0 0 0-1.166779 6.006752L531.532748 898.679271a9.161377 9.161377 0 0 0 9.679946 6.395678l490.349764-97.145172a8.081026 8.081026 0 0 0 5.228899-3.543551 7.90817 7.90817 0 0 0 1.166779-6.006753L913.458474 186.209318a8.081026 8.081026 0 0 0-3.543552-5.228899 7.864956 7.864956 0 0 0-6.006752-1.16678l-141.525996 27.873059a18.452397 18.452397 0 0 1-21.607022-14.260635l-2.074274-8.642808a25.928427 25.928427 0 0 0-10.889939-15.859555 23.465226 23.465226 0 0 0-13.56921-4.667117z" fill="#A5A5A5" /><path d="M820.548278 341.434166l-276.310601 57.345037a6.611749 6.611749 0 0 0 2.592843 12.964214l275.748818-57.561108a6.568535 6.568535 0 0 0 5.185686-7.735314 6.049966 6.049966 0 0 0-7.216746-5.185685z" fill="#A5A5A5" /><path d="M545.706955 413.38555a8.642809 8.642809 0 0 1-4.796759-1.339635 7.432816 7.432816 0 0 1-3.457124-5.272114 8.12424 8.12424 0 0 1 6.525321-9.593517l276.310601-57.345038a7.648886 7.648886 0 0 1 9.074949 6.525321 8.12424 8.12424 0 0 1-6.52532 9.593518l-275.705605 57.301823z m275.100607-70.352464L544.496962 400.378123a4.321404 4.321404 0 0 0-3.111412 1.987846 5.87711 5.87711 0 0 0-0.777852 3.932478 4.321404 4.321404 0 0 0 1.987846 2.981769 5.963538 5.963538 0 0 0 3.932478 0.777853l275.705604-57.301823a4.969615 4.969615 0 0 0 3.889264-5.920324 4.321404 4.321404 0 0 0-5.315328-3.802836z" fill="#A5A5A5" /><path d="M846.347063 447.308575L570.425388 504.653612a6.611749 6.611749 0 0 0 2.592843 12.964214l275.792032-57.345037a6.568535 6.568535 0 0 0 5.185686-7.735314 6.827819 6.827819 0 0 0-7.735314-5.185686z" fill="#A5A5A5" /><path d="M572.024308 519.259959a8.858879 8.858879 0 0 1-4.796759-1.339635 7.432816 7.432816 0 0 1-3.457124-5.272113 8.12424 8.12424 0 0 1 6.525321-9.593518l275.792033-57.345037a8.642809 8.642809 0 0 1 9.550303 6.30925 9.118163 9.118163 0 0 1-1.209993 6.352465 7.432816 7.432816 0 0 1-5.272113 3.457123l-275.705605 57.301823z m274.582039-70.352464l-275.748818 57.301823a4.969615 4.969615 0 0 0-3.889264 5.920324 4.321404 4.321404 0 0 0 1.987846 2.981769 5.920324 5.920324 0 0 0 3.932478 0.777853l275.705604-57.301823a4.321404 4.321404 0 0 0 3.111411-1.987846 5.87711 5.87711 0 0 0 0.777853-3.932478 5.185685 5.185685 0 0 0-5.833896-3.759622z" fill="#A5A5A5" /><path d="M755.467927 583.648886l-161.663741 33.577313a6.611749 6.611749 0 0 0 2.592843 12.964213l161.663741-33.577313a6.568535 6.568535 0 0 0 5.185685-7.735314 6.438893 6.438893 0 0 0-7.735314-5.185685z" fill="#A5A5A5" /><path d="M595.273464 631.832546a8.642809 8.642809 0 0 1-5.315328-1.728562 7.432816 7.432816 0 0 1-2.938555-4.926401 9.031735 9.031735 0 0 1 1.253208-6.136395 7.432816 7.432816 0 0 1 5.272113-3.457123l161.490885-33.534099a8.037812 8.037812 0 0 1 9.852802 6.352465 8.167454 8.167454 0 0 1-6.482107 9.809588l-161.534098 33.534098z m161.750169-46.757597a4.321404 4.321404 0 0 0-1.123565 0l-161.663741 33.577313a4.321404 4.321404 0 0 0-3.111411 1.987846 5.87711 5.87711 0 0 0-0.777853 3.932478 4.321404 4.321404 0 0 0 1.685348 2.765699 5.790682 5.790682 0 0 0 4.321404 0.993923l161.534099-33.534099a4.969615 4.969615 0 0 0 3.889264-5.920324 5.142471 5.142471 0 0 0-4.753545-3.802836z" fill="#A5A5A5" /><path d="M711.562458 214.384875l-101.207293 21.174882a7.90817 7.90817 0 0 1-3.111411-15.513842l101.207293-21.174882a8.037812 8.037812 0 0 1 9.291019 6.179608 8.642809 8.642809 0 0 1-6.179608 9.29102z" fill="#A5A5A5" /><path d="M608.713032 236.856178a8.642809 8.642809 0 0 1-4.796759-1.555705 9.896016 9.896016 0 0 1-3.932478-5.66104 9.118163 9.118163 0 0 1 7.000675-10.587441l101.250506-21.174882a8.12424 8.12424 0 0 1 6.654963 1.339635 9.896016 9.896016 0 0 1 3.932478 5.66104 9.636732 9.636732 0 0 1-7.000675 10.587441l-101.207292 21.174882a7.648886 7.648886 0 0 1-1.901418 0.21607z m101.380148-37.07765a5.531398 5.531398 0 0 0-1.382849 0l-101.250507 21.174882a6.914247 6.914247 0 0 0-5.358541 7.994598 7.6921 7.6921 0 0 0 3.068197 4.321405 6.006752 6.006752 0 0 0 4.926401 0.993923l101.250507-21.174882a7.432816 7.432816 0 0 0 5.358541-8.124241 7.6921 7.6921 0 0 0-3.024983-4.321404 6.266036 6.266036 0 0 0-3.586766-0.864281z" fill="#A5A5A5" /><path d="M1087.006077 105.442269l-69.704254 34.095881a7.47603 7.47603 0 0 1-10.328157-3.62998l-0.518568-1.037137a7.47603 7.47603 0 0 1 3.62998-10.328157l69.704254-33.966239a7.47603 7.47603 0 0 1 10.328156 3.62998l0.518569 1.037137a7.216745 7.216745 0 0 1-3.62998 10.328157zM945.004727 8.858879v77.78528a7.951384 7.951384 0 0 1-7.735314 7.735314h-1.037138a7.951384 7.951384 0 0 1-7.735313-7.735314v-77.78528a7.951384 7.951384 0 0 1 7.735313-7.735314h1.037138a7.951384 7.951384 0 0 1 7.735314 7.735314zM1025.037137 222.120189l69.704254 34.095881a7.90817 7.90817 0 0 1 3.62998 10.328157l-0.518569 1.037137a7.90817 7.90817 0 0 1-10.328156 3.62998l-69.704254-34.095881a7.90817 7.90817 0 0 1-3.62998-10.328157l0.518568-1.037137a7.47603 7.47603 0 0 1 10.328157-3.62998z" fill="#A5A5A5" /><path d="M1090.636057 273.112762a7.216745 7.216745 0 0 1-3.62998-0.950709l-69.66104-34.052667a9.031735 9.031735 0 0 1-4.06212-11.840649l0.475354-0.993923a9.118163 9.118163 0 0 1 5.488184-4.753545 7.994598 7.994598 0 0 1 6.309251 0.691425l69.704253 34.052667a10.241729 10.241729 0 0 1 4.321405 5.185686 7.6921 7.6921 0 0 1-0.388926 6.654962l-0.475355 0.993923a9.896016 9.896016 0 0 1-8.081026 5.01283z m-69.142472-50.776503a6.049966 6.049966 0 0 0-1.728561 0.259285 7.000675 7.000675 0 0 0-4.321405 3.673193l-0.518568 1.037137a6.827819 6.827819 0 0 0 3.197839 8.902094l69.66104 34.052667a6.827819 6.827819 0 0 0 8.902093-3.19784l0.475354-0.993923a5.617826 5.617826 0 0 0 0.259285-4.883187 7.951384 7.951384 0 0 0-3.457124-4.018906l-69.704254-34.095881a5.790682 5.790682 0 0 0-2.636056-0.777853z m-7.735314-80.810263a8.210668 8.210668 0 0 1-2.376772-0.345712 9.118163 9.118163 0 0 1-5.488184-4.753545l-0.518568-1.037137a7.951384 7.951384 0 0 1-0.648211-6.266037 9.118163 9.118163 0 0 1 4.753545-5.488184l69.747468-34.095881a7.951384 7.951384 0 0 1 6.266036-0.64821 9.118163 9.118163 0 0 1 5.488184 4.753545l0.518569 1.037137a8.988521 8.988521 0 0 1 0.475354 7.303173 7.90817 7.90817 0 0 1-4.623903 4.321405l-69.66104 34.052667a7.735314 7.735314 0 0 1-3.802835 1.123565z m69.142472-50.906145a5.790682 5.790682 0 0 0-2.895341 0.777853l-69.790682 34.139095a7.000675 7.000675 0 0 0-3.673194 4.321405 5.833896 5.833896 0 0 0 0.518569 4.623903l0.561782 1.080351a7.000675 7.000675 0 0 0 4.321405 3.673194 5.833896 5.833896 0 0 0 4.623902-0.518569l69.87711-34.139095a5.747468 5.747468 0 0 0 3.41391-3.284268 6.827819 6.827819 0 0 0-0.388926-5.531397l-0.518569-1.037137a7.000675 7.000675 0 0 0-4.321404-3.673194 6.049966 6.049966 0 0 0-1.426064-0.475355z m-145.977043 5.056044h-1.037137a9.074949 9.074949 0 0 1-8.642809-8.642809v-77.78528a9.074949 9.074949 0 0 1 8.642809-8.642809h1.037137a9.074949 9.074949 0 0 1 8.642809 8.642809v77.78528a9.074949 9.074949 0 0 1-8.297096 8.642809zM935.886563 2.203916a6.827819 6.827819 0 0 0-6.654963 6.654963v77.78528a6.827819 6.827819 0 0 0 6.654963 6.654963h1.037137a6.827819 6.827819 0 0 0 6.654963-6.654963v-77.78528a6.827819 6.827819 0 0 0-6.654963-6.654963z" fill="#A5A5A5" /><path d="M1265.004727 599.983795a8.945307 8.945307 0 0 1-6.914248-2.938555 9.550304 9.550304 0 0 1 0-13.785281l12.964214-12.964213a9.766374 9.766374 0 1 1 13.78528 13.78528l-12.964213 12.964214a10.630655 10.630655 0 0 1-6.914248 2.938555zM1327.146523 600.977718a8.945307 8.945307 0 0 1-6.914248-2.938555l-12.964213-12.964214a9.766374 9.766374 0 0 1 13.78528-13.78528l12.964214 12.964214a9.550304 9.550304 0 0 1 0 13.78528 8.945307 8.945307 0 0 1-6.914247 2.938555zM1315.305874 550.67657a8.945307 8.945307 0 0 1-6.914247-2.938555 9.550304 9.550304 0 0 1 0-13.78528l12.964214-12.964214a9.766374 9.766374 0 0 1 13.78528 13.78528l-12.964214 12.964214a8.945307 8.945307 0 0 1-6.914247 2.938555zM1277.839298 549.682647a8.945307 8.945307 0 0 1-6.914247-2.938555l-12.964214-12.964214a9.766374 9.766374 0 0 1 13.78528-13.78528l12.964214 12.964214a9.550304 9.550304 0 0 1 0 13.78528 7.346388 7.346388 0 0 1-6.914247 2.938555zM311.357191 782.606347a39.454423 39.454423 0 1 0 39.454423 39.454423 39.540851 39.540851 0 0 0-39.454423-39.454423z m0 59.160027a19.705604 19.705604 0 1 1 19.705604-19.705604 19.792032 19.792032 0 0 1-19.705604 19.705604zM147.921675 481.404456H88.761648a9.852802 9.852802 0 1 1 0-19.705604h59.160027a9.852802 9.852802 0 0 1 0 19.705604z" fill="#A5A5A5" /><path d="M118.320054 510.962863a9.334234 9.334234 0 0 1-9.852802-9.852802v-59.160027a9.852802 9.852802 0 0 1 19.705604 0v59.160027a9.334234 9.334234 0 0 1-9.852802 9.852802zM1108.785955 1024h-258.4632c-7.735314 0-12.964213-3.932478-12.964213-9.852802s5.185685-9.852802 12.964213-9.852802h258.4632c7.735314 0 12.964213 3.932478 12.964214 9.852802s-6.482107 9.852802-12.964214 9.852802zM811.559757 1024h-19.403106c-7.735314 0-12.964213-3.932478-12.964213-9.852802s5.185685-9.852802 12.964213-9.852802h19.403106c7.735314 0 12.964213 3.932478 12.964213 9.852802s-6.482107 9.852802-12.964213 9.852802zM736.58339 1024h-81.41526c-7.735314 0-12.964213-3.932478-12.964214-9.852802s5.185685-9.852802 12.964214-9.852802h81.41526c7.735314 0 12.964213 3.932478 12.964213 9.852802s-5.185685 9.852802-12.964213 9.852802zM572.499662 1024H12.964213c-7.735314 0-12.964213-3.932478-12.964213-9.852802s5.185685-9.852802 12.964213-9.852802h559.535449c7.735314 0 12.964213 3.932478 12.964214 9.852802s-6.482107 9.852802-12.964214 9.852802zM1447.670493 1024h-251.93788c-7.735314 0-12.964213-3.932478-12.964213-9.852802s5.185685-9.852802 12.964213-9.852802H1447.670493c7.735314 0 12.964213 3.932478 12.964213 9.852802s-6.482107 9.852802-12.964213 9.852802z" fill="#A5A5A5" /></svg>